<svg 
 xmlns="http://www.w3.org/2000/svg"
 xmlns:xlink="http://www.w3.org/1999/xlink"
 width="17px" height="17px">
<path fill-rule="evenodd"  fill="rgb(110, 94, 229)"
 d="M8.000,15.000 C3.589,15.000 -0.000,11.635 -0.000,7.500 C-0.000,3.365 3.589,-0.000 8.000,-0.000 C12.411,-0.000 16.000,3.365 16.000,7.500 C16.000,11.635 12.411,15.000 8.000,15.000 ZM8.000,1.667 C4.569,1.667 1.778,4.283 1.778,7.500 C1.778,10.716 4.569,13.333 8.000,13.333 C11.431,13.333 14.222,10.716 14.222,7.500 C14.222,4.283 11.431,1.667 8.000,1.667 ZM8.889,10.000 L7.111,10.000 L7.111,8.333 L5.333,8.333 L5.333,6.667 L7.111,6.667 L7.111,5.000 L8.889,5.000 L8.889,6.667 L10.667,6.667 L10.667,8.333 L8.889,8.333 L8.889,10.000 Z"/>
</svg>