<svg 
 xmlns="http://www.w3.org/2000/svg"
 xmlns:xlink="http://www.w3.org/1999/xlink"
 width="27px" height="30px">
<path fill-rule="evenodd"  fill="rgb(255, 255, 255)"
 d="M11.625,6.000 L9.750,6.000 L9.750,3.750 C9.750,1.682 8.068,-0.000 6.000,-0.000 C3.932,-0.000 2.250,1.682 2.250,3.750 L2.250,6.000 L0.375,6.000 C0.169,6.000 -0.000,6.169 -0.000,6.375 L-0.000,9.000 C-0.000,12.314 2.686,15.000 6.000,15.000 C9.314,15.000 12.000,12.314 12.000,9.000 L12.000,6.375 C12.000,6.169 11.831,6.000 11.625,6.000 ZM6.000,10.875 C5.379,10.875 4.875,10.371 4.875,9.750 C4.875,9.128 5.379,8.625 6.000,8.625 C6.621,8.625 7.125,9.128 7.125,9.750 C7.125,10.371 6.621,10.875 6.000,10.875 ZM3.750,6.000 L3.750,3.750 C3.750,2.509 4.759,1.500 6.000,1.500 C7.241,1.500 8.250,2.509 8.250,3.750 L8.250,6.000 L3.750,6.000 Z"/>
</svg>